<svg class='uit-icon' xmlns="http://www.w3.org/2000/svg" viewBox="0 0 50 50"><path d="M29.53 11.75c0-6.84-2-7.88-4.56-7.88s-4.5.92-4.5 7.88 2 7.58 4.5 7.58 4.56-.73 4.56-7.58m-9 26.1a3.78 3.78 0 0 0-4.05 4c0 2.48 2.23 4.76 8.73 4.76 7.39 0 9.39-2.08 9.39-4.79 0-2.36-1.78-4-4.76-4h-9.3zM14.57 2.8A25 25 0 0 0 7.2 43.08v-.37c0-4.46 4.35-6.11 8.21-6.9-3.68-.8-5.45-3.42-5.45-6.11 0-3.61 4-6.71 6-8.05l-.23-.13A10.74 10.74 0 0 1 10 11.75a10.52 10.52 0 0 1 4.56-9M50 25.53a25 25 0 0 0-15.13-23 10.49 10.49 0 0 1 4.92 8.72 5.42 5.42 0 0 1 .07.84c0 7.45-6.07 11.42-14.9 11.42a18.16 18.16 0 0 1-5.64-.67 3.38 3.38 0 0 0-1.54 2.5 2.34 2.34 0 0 0 2.45 2.2h12.28c7.6 0 11.34 3.11 11.34 9.83a12.65 12.65 0 0 1-1.37 6A24.93 24.93 0 0 0 50 25.53"/></svg>